M48
; DRILL file {KiCad (6.0.2)} date Sun Apr 24 21:41:06 2022
; FORMAT={-:-/ absolute / inch / decimal}
; #@! TF.CreationDate,2022-04-24T21:41:06-05:00
; #@! TF.GenerationSoftware,Kicad,Pcbnew,(6.0.2)
; #@! TF.FileFunction,Plated,1,2,PTH
FMAT,2
INCH
; #@! TA.AperFunction,Plated,PTH,ViaDrill
T1C0.0118
; #@! TA.AperFunction,Plated,PTH,ComponentDrill
T2C0.0433
%
G90
G05
T1
X4.6542Y-2.451
X4.6865Y-2.9114
X4.7142Y-2.8917
X4.7463Y-3.187
X4.7468Y-2.827
X4.7742Y-3.1684
X4.78Y-2.8258
X4.7942Y-3.0484
X4.8742Y-2.3384
X4.8978Y-2.3984
X4.9009Y-3.1351
X4.9142Y-1.9284
X4.93Y-3.1471
X4.9542Y-3.1672
X4.9544Y-3.199
T2
X4.4242Y-1.9284
X4.4242Y-2.0284
X4.4242Y-2.1284
X4.4242Y-2.2284
X4.4242Y-2.3284
X4.4242Y-2.4284
X4.4242Y-2.5284
X4.4242Y-2.6284
X4.4242Y-2.7284
X4.4242Y-2.8284
X4.4242Y-2.9284
X4.4242Y-3.0284
X4.4242Y-3.1284
X4.4242Y-3.2284
X4.4242Y-3.3284
X4.4242Y-3.4284
X4.4242Y-3.5284
X4.4242Y-3.6284
X4.4242Y-3.7284
X4.4242Y-3.8284
X4.4242Y-3.9284
X4.4242Y-4.0284
X4.4242Y-4.1284
X4.4242Y-4.2284
X4.5242Y-3.7284
X4.5443Y-2.1764
X4.5443Y-2.2764
X4.5443Y-2.3764
X4.5443Y-2.4764
X4.5443Y-2.5764
X4.6242Y-3.7284
X4.7242Y-3.7284
X4.8242Y-3.7284
X4.9242Y-2.0284
X4.9242Y-3.7284
X5.0242Y-1.9284
X5.0242Y-2.0284
X5.0242Y-2.1284
X5.0242Y-2.2284
X5.0242Y-2.3284
X5.0242Y-2.4284
X5.0242Y-2.5284
X5.0242Y-2.6284
X5.0242Y-2.7284
X5.0242Y-2.8284
X5.0242Y-2.9284
X5.0242Y-3.0284
X5.0242Y-3.1284
X5.0242Y-3.2284
X5.0242Y-3.3284
X5.0242Y-3.4284
X5.0242Y-3.5284
X5.0242Y-3.6284
X5.0242Y-3.7284
X5.0242Y-3.8284
X5.0242Y-3.9284
X5.0242Y-4.0284
X5.0242Y-4.1284
X5.0242Y-4.2284
T0
M30
