%TF.GenerationSoftware,KiCad,Pcbnew,(6.0.2)*%
%TF.CreationDate,2022-04-24T21:41:02-05:00*%
%TF.ProjectId,thinkpad-teensy-keyboard,7468696e-6b70-4616-942d-7465656e7379,v1.0.0*%
%TF.SameCoordinates,Original*%
%TF.FileFunction,Soldermask,Top*%
%TF.FilePolarity,Negative*%
%FSLAX46Y46*%
G04 Gerber Fmt 4.6, Leading zero omitted, Abs format (unit mm)*
G04 Created by KiCad (PCBNEW (6.0.2)) date 2022-04-24 21:41:02*
%MOMM*%
%LPD*%
G01*
G04 APERTURE LIST*
G04 Aperture macros list*
%AMRoundRect*
0 Rectangle with rounded corners*
0 $1 Rounding radius*
0 $2 $3 $4 $5 $6 $7 $8 $9 X,Y pos of 4 corners*
0 Add a 4 corners polygon primitive as box body*
4,1,4,$2,$3,$4,$5,$6,$7,$8,$9,$2,$3,0*
0 Add four circle primitives for the rounded corners*
1,1,$1+$1,$2,$3*
1,1,$1+$1,$4,$5*
1,1,$1+$1,$6,$7*
1,1,$1+$1,$8,$9*
0 Add four rect primitives between the rounded corners*
20,1,$1+$1,$2,$3,$4,$5,0*
20,1,$1+$1,$4,$5,$6,$7,0*
20,1,$1+$1,$6,$7,$8,$9,0*
20,1,$1+$1,$8,$9,$2,$3,0*%
G04 Aperture macros list end*
%ADD10RoundRect,0.101600X0.400000X0.450000X-0.400000X0.450000X-0.400000X-0.450000X0.400000X-0.450000X0*%
%ADD11RoundRect,0.101600X0.550000X0.500000X-0.550000X0.500000X-0.550000X-0.500000X0.550000X-0.500000X0*%
%ADD12RoundRect,0.101600X0.500000X-0.550000X0.500000X0.550000X-0.500000X0.550000X-0.500000X-0.550000X0*%
%ADD13RoundRect,0.101600X-0.550000X-0.500000X0.550000X-0.500000X0.550000X0.500000X-0.550000X0.500000X0*%
%ADD14R,1.600000X1.600000*%
%ADD15C,1.600000*%
G04 APERTURE END LIST*
D10*
%TO.C,Q1*%
X123230433Y-52299466D03*
X121330433Y-52299466D03*
X122280433Y-54399466D03*
%TD*%
D11*
%TO.C,C1*%
X116106433Y-48981466D03*
X114406433Y-48981466D03*
%TD*%
D12*
%TO.C,R3*%
X122280433Y-50593466D03*
X122280433Y-48893466D03*
%TD*%
D10*
%TO.C,Q2*%
X119420433Y-52283466D03*
X117520433Y-52283466D03*
X118470433Y-54383466D03*
%TD*%
D11*
%TO.C,R5*%
X119828433Y-56347466D03*
X118128433Y-56347466D03*
%TD*%
D13*
%TO.C,R4*%
X122446433Y-56347466D03*
X124146433Y-56347466D03*
%TD*%
D14*
%TO.C,U1*%
X112374433Y-48981466D03*
D15*
X112374433Y-51521466D03*
X112374433Y-54061466D03*
X112374433Y-56601466D03*
X112374433Y-59141466D03*
X112374433Y-61681466D03*
X112374433Y-64221466D03*
X112374433Y-66761466D03*
X112374433Y-69301466D03*
X112374433Y-71841466D03*
X112374433Y-74381466D03*
X112374433Y-76921466D03*
X112374433Y-79461466D03*
X112374433Y-82001466D03*
X112374433Y-84541466D03*
X112374433Y-87081466D03*
X112374433Y-89621466D03*
X112374433Y-92161466D03*
X112374433Y-94701466D03*
X112374433Y-97241466D03*
X112374433Y-99781466D03*
X112374433Y-102321466D03*
X112374433Y-104861466D03*
X112374433Y-107401466D03*
X127614433Y-107401466D03*
X127614433Y-104861466D03*
X127614433Y-102321466D03*
X127614433Y-99781466D03*
X127614433Y-97241466D03*
X127614433Y-94701466D03*
X127614433Y-92161466D03*
X127614433Y-89621466D03*
X127614433Y-87081466D03*
X127614433Y-84541466D03*
X127614433Y-82001466D03*
X127614433Y-79461466D03*
X127614433Y-76921466D03*
X127614433Y-74381466D03*
X127614433Y-71841466D03*
X127614433Y-69301466D03*
X127614433Y-66761466D03*
X127614433Y-64221466D03*
X127614433Y-61681466D03*
X127614433Y-59141466D03*
X127614433Y-56601466D03*
X127614433Y-54061466D03*
X127614433Y-51521466D03*
X127614433Y-48981466D03*
X125074433Y-51521466D03*
X114914433Y-94701466D03*
X117454433Y-94701466D03*
X119994433Y-94701466D03*
X122534433Y-94701466D03*
X125074433Y-94701466D03*
D14*
X115425233Y-55280666D03*
D15*
X115425233Y-57820666D03*
X115425233Y-60360666D03*
X115425233Y-62900666D03*
X115425233Y-65440666D03*
%TD*%
D12*
%TO.C,R2*%
X118536433Y-50593466D03*
X118536433Y-48893466D03*
%TD*%
M02*
